<svg width="20" height="20" viewBox="0 0 20 20" fill="none" xmlns="http://www.w3.org/2000/svg">
<path d="M16.6665 4.99996H13.3332V3.33329C13.3332 2.87496 13.1698 2.48246 12.8432 2.15579C12.5165 1.82913 12.1243 1.66608 11.6665 1.66663H8.33317C7.87484 1.66663 7.48234 1.82996 7.15567 2.15663C6.829 2.48329 6.66596 2.87552 6.6665 3.33329V4.99996H3.33317C2.87484 4.99996 2.48234 5.16329 2.15567 5.48996C1.82901 5.81663 1.66596 6.20885 1.66651 6.66663V15.8333C1.66651 16.2916 1.82984 16.6841 2.15651 17.0108C2.48317 17.3375 2.8754 17.5005 3.33317 17.5H16.6665C17.1248 17.5 17.5173 17.3366 17.844 17.01C18.1707 16.6833 18.3338 16.291 18.3332 15.8333V6.66663C18.3332 6.20829 18.1698 5.81579 17.8432 5.48913C17.5165 5.16246 17.1243 4.99941 16.6665 4.99996ZM8.33317 3.33329H11.6665V4.99996H8.33317V3.33329ZM16.6665 15.8333H3.33317V6.66663H16.6665V15.8333ZM9.16651 8.33329V13.3333H10.8332V8.33329H9.16651Z" fill="black"/>
</svg>
