<svg width="14" height="14" viewBox="0 0 14 14" fill="none" xmlns="http://www.w3.org/2000/svg">
<path d="M7 13.75C5.125 13.75 3.53125 13.0938 2.21875 11.7812C0.90625 10.4688 0.25 8.875 0.25 7C0.25 5.125 0.90625 3.53125 2.21875 2.21875C3.53125 0.90625 5.125 0.25 7 0.25C7.175 0.25 7.34687 0.25625 7.51562 0.26875C7.68438 0.28125 7.85 0.3 8.0125 0.325C7.5 0.6875 7.09063 1.15938 6.78438 1.74063C6.47813 2.32188 6.325 2.95 6.325 3.625C6.325 4.75 6.71875 5.70625 7.50625 6.49375C8.29375 7.28125 9.25 7.675 10.375 7.675C11.0625 7.675 11.6937 7.52188 12.2687 7.21563C12.8437 6.90938 13.3125 6.5 13.675 5.9875C13.7 6.15 13.7188 6.31562 13.7313 6.48438C13.7438 6.65313 13.75 6.825 13.75 7C13.75 8.875 13.0938 10.4688 11.7812 11.7812C10.4688 13.0938 8.875 13.75 7 13.75ZM7 12.25C8.1 12.25 9.0875 11.9469 9.9625 11.3406C10.8375 10.7344 11.475 9.94375 11.875 8.96875C11.625 9.03125 11.375 9.08125 11.125 9.11875C10.875 9.15625 10.625 9.175 10.375 9.175C8.8375 9.175 7.52812 8.63438 6.44687 7.55313C5.36562 6.47188 4.825 5.1625 4.825 3.625C4.825 3.375 4.84375 3.125 4.88125 2.875C4.91875 2.625 4.96875 2.375 5.03125 2.125C4.05625 2.525 3.26563 3.1625 2.65938 4.0375C2.05313 4.9125 1.75 5.9 1.75 7C1.75 8.45 2.2625 9.6875 3.2875 10.7125C4.3125 11.7375 5.55 12.25 7 12.25Z" fill="#1D1B20"/>
</svg>
