<svg width="18" height="19" viewBox="0 0 18 19" fill="none" xmlns="http://www.w3.org/2000/svg">
<path d="M9 12.25C9.625 12.25 10.1562 12.0312 10.5938 11.5938C11.0312 11.1562 11.25 10.625 11.25 10C11.25 9.375 11.0312 8.84375 10.5938 8.40625C10.1562 7.96875 9.625 7.75 9 7.75C8.375 7.75 7.84375 7.96875 7.40625 8.40625C6.96875 8.84375 6.75 9.375 6.75 10C6.75 10.625 6.96875 11.1562 7.40625 11.5938C7.84375 12.0312 8.375 12.25 9 12.25ZM9 13.75C7.9625 13.75 7.07812 13.3844 6.34688 12.6531C5.61562 11.9219 5.25 11.0375 5.25 10C5.25 8.9625 5.61562 8.07812 6.34688 7.34688C7.07812 6.61562 7.9625 6.25 9 6.25C10.0375 6.25 10.9219 6.61562 11.6531 7.34688C12.3844 8.07812 12.75 8.9625 12.75 10C12.75 11.0375 12.3844 11.9219 11.6531 12.6531C10.9219 13.3844 10.0375 13.75 9 13.75ZM3.75 10.75H0.75V9.25H3.75V10.75ZM17.25 10.75H14.25V9.25H17.25V10.75ZM8.25 4.75V1.75H9.75V4.75H8.25ZM8.25 18.25V15.25H9.75V18.25H8.25ZM4.8 6.8125L2.90625 4.99375L3.975 3.8875L5.775 5.7625L4.8 6.8125ZM14.025 16.1125L12.2063 14.2188L13.2 13.1875L15.0938 15.0063L14.025 16.1125ZM12.1875 5.8L14.0063 3.90625L15.1125 4.975L13.2375 6.775L12.1875 5.8ZM2.8875 15.025L4.78125 13.2063L5.8125 14.2L3.99375 16.0938L2.8875 15.025Z" fill="#FEF7FF"/>
</svg>
