<svg width="133" height="16" viewBox="0 0 133 16" fill="none" xmlns="http://www.w3.org/2000/svg">
<g clip-path="url(#clip0_30_21)">
<path d="M127.978 1.64718C128.059 1.38324 127.911 1.10345 127.647 1.02224C127.383 0.941034 127.103 1.08916 127.022 1.35309L123.022 14.3531C122.941 14.617 123.089 14.8968 123.353 14.978C123.617 15.0592 123.897 14.9111 123.978 14.6472L127.978 1.64718Z" fill="black"/>
<path d="M122.354 4.14657C122.549 4.34183 122.549 4.65841 122.354 4.85368L119.207 8.00012L122.354 11.1466C122.549 11.3418 122.549 11.6584 122.354 11.8537C122.158 12.0489 121.842 12.0489 121.646 11.8537L118.146 8.35368C117.951 8.15841 117.951 7.84183 118.146 7.64657L121.646 4.14657C121.842 3.95131 122.158 3.95131 122.354 4.14657Z" fill="black"/>
<path d="M128.646 4.14657C128.451 4.34183 128.451 4.65841 128.646 4.85368L131.793 8.00012L128.646 11.1466C128.451 11.3418 128.451 11.6584 128.646 11.8537C128.842 12.0489 129.158 12.0489 129.354 11.8537L132.854 8.35368C133.049 8.15841 133.049 7.84183 132.854 7.64657L129.354 4.14657C129.158 3.95131 128.842 3.95131 128.646 4.14657Z" fill="black"/>
<path d="M1.84517 12V4.36364H3.86364V5.71094H3.95312C4.11222 5.26349 4.37737 4.91051 4.74858 4.65199C5.11979 4.39347 5.56392 4.2642 6.08097 4.2642C6.60464 4.2642 7.05043 4.39512 7.41832 4.65696C7.78622 4.91548 8.03149 5.26681 8.15412 5.71094H8.23367C8.38944 5.27344 8.67116 4.92377 9.07884 4.66193C9.48982 4.39678 9.97538 4.2642 10.5355 4.2642C11.2481 4.2642 11.8265 4.49124 12.2706 4.94531C12.718 5.39607 12.9418 6.03575 12.9418 6.86435V12H10.8288V7.28196C10.8288 6.85772 10.7161 6.53954 10.4908 6.32741C10.2654 6.11529 9.98367 6.00923 9.6456 6.00923C9.26113 6.00923 8.96117 6.13187 8.74574 6.37713C8.5303 6.61908 8.42259 6.93892 8.42259 7.33665V12H6.36932V7.23722C6.36932 6.86269 6.2616 6.56439 6.04616 6.34233C5.83404 6.12026 5.55398 6.00923 5.20597 6.00923C4.97064 6.00923 4.75852 6.06889 4.5696 6.18821C4.384 6.30421 4.23651 6.46828 4.12713 6.6804C4.01776 6.8892 3.96307 7.13447 3.96307 7.41619V12H1.84517ZM19.5117 8.74858V4.36364H21.6296V12H19.5962V10.6129H19.5167C19.3443 11.0604 19.0576 11.42 18.6566 11.6918C18.2589 11.9635 17.7733 12.0994 17.1999 12.0994C16.6895 12.0994 16.2404 11.9834 15.8526 11.7514C15.4648 11.5194 15.1616 11.1896 14.9428 10.7621C14.7274 10.3345 14.618 9.82244 14.6147 9.22585V4.36364H16.7326V8.84801C16.7359 9.29877 16.8569 9.65507 17.0955 9.9169C17.3342 10.1787 17.654 10.3097 18.055 10.3097C18.3103 10.3097 18.5489 10.2517 18.771 10.1357C18.993 10.0163 19.172 9.84067 19.3079 9.60866C19.4471 9.37666 19.515 9.08996 19.5117 8.74858ZM25.4416 7.58523V12H23.3237V1.81818H25.3819V5.71094H25.4714C25.6438 5.26018 25.9222 4.9072 26.3066 4.65199C26.6911 4.39347 27.1734 4.2642 27.7534 4.2642C28.2837 4.2642 28.746 4.38021 29.1404 4.61222C29.5382 4.84091 29.8464 5.17069 30.0652 5.60156C30.2872 6.02912 30.3966 6.54119 30.3933 7.13778V12H28.2754V7.51562C28.2787 7.04498 28.1594 6.67874 27.9174 6.4169C27.6788 6.15507 27.344 6.02415 26.9132 6.02415C26.6248 6.02415 26.3696 6.08546 26.1475 6.2081C25.9288 6.33073 25.7565 6.50971 25.6305 6.74503C25.5079 6.97704 25.4449 7.2571 25.4416 7.58523ZM32.06 12V4.36364H34.1779V12H32.06ZM33.1239 3.37926C32.8091 3.37926 32.5389 3.27486 32.3136 3.06605C32.0915 2.85393 31.9805 2.60038 31.9805 2.3054C31.9805 2.01373 32.0915 1.76349 32.3136 1.55469C32.5389 1.34257 32.8091 1.23651 33.1239 1.23651C33.4388 1.23651 33.7073 1.34257 33.9293 1.55469C34.1547 1.76349 34.2674 2.01373 34.2674 2.3054C34.2674 2.60038 34.1547 2.85393 33.9293 3.06605C33.7073 3.27486 33.4388 3.37926 33.1239 3.37926ZM38.6884 12.1243C38.1084 12.1243 37.583 11.9751 37.1124 11.6768C36.6451 11.3752 36.2739 10.9328 35.9988 10.3494C35.727 9.76278 35.5911 9.04356 35.5911 8.19176C35.5911 7.31676 35.7319 6.58925 36.0137 6.00923C36.2954 5.4259 36.6699 4.99006 37.1373 4.7017C37.6079 4.41004 38.1233 4.2642 38.6834 4.2642C39.111 4.2642 39.4673 4.33712 39.7523 4.48295C40.0407 4.62547 40.2727 4.80445 40.4483 5.01989C40.6273 5.23201 40.7632 5.44081 40.856 5.64631H40.9206V1.81818H43.0336V12H40.9455V10.777H40.856C40.7566 10.9891 40.6157 11.1996 40.4334 11.4084C40.2544 11.6139 40.0208 11.7846 39.7324 11.9205C39.4474 12.0563 39.0994 12.1243 38.6884 12.1243ZM39.3596 10.4389C39.7009 10.4389 39.9893 10.3461 40.2246 10.1605C40.4632 9.97159 40.6455 9.7081 40.7715 9.37003C40.9007 9.03196 40.9654 8.63589 40.9654 8.18182C40.9654 7.72775 40.9024 7.33333 40.7765 6.99858C40.6505 6.66383 40.4682 6.4053 40.2296 6.22301C39.9909 6.04072 39.7009 5.94957 39.3596 5.94957C39.0115 5.94957 38.7182 6.04403 38.4796 6.23295C38.2409 6.42187 38.0603 6.68371 37.9377 7.01847C37.815 7.35322 37.7537 7.741 37.7537 8.18182C37.7537 8.62595 37.815 9.0187 37.9377 9.36009C38.0636 9.69815 38.2443 9.9633 38.4796 10.1555C38.7182 10.3445 39.0115 10.4389 39.3596 10.4389ZM47.5888 12.1243C47.0088 12.1243 46.4834 11.9751 46.0128 11.6768C45.5455 11.3752 45.1742 10.9328 44.8991 10.3494C44.6274 9.76278 44.4915 9.04356 44.4915 8.19176C44.4915 7.31676 44.6323 6.58925 44.9141 6.00923C45.1958 5.4259 45.5703 4.99006 46.0376 4.7017C46.5083 4.41004 47.0237 4.2642 47.5838 4.2642C48.0114 4.2642 48.3677 4.33712 48.6527 4.48295C48.9411 4.62547 49.1731 4.80445 49.3487 5.01989C49.5277 5.23201 49.6636 5.44081 49.7564 5.64631H49.821V1.81818H51.9339V12H49.8459V10.777H49.7564C49.657 10.9891 49.5161 11.1996 49.3338 11.4084C49.1548 11.6139 48.9212 11.7846 48.6328 11.9205C48.3478 12.0563 47.9998 12.1243 47.5888 12.1243ZM48.2599 10.4389C48.6013 10.4389 48.8897 10.3461 49.125 10.1605C49.3636 9.97159 49.5459 9.7081 49.6719 9.37003C49.8011 9.03196 49.8658 8.63589 49.8658 8.18182C49.8658 7.72775 49.8028 7.33333 49.6768 6.99858C49.5509 6.66383 49.3686 6.4053 49.13 6.22301C48.8913 6.04072 48.6013 5.94957 48.2599 5.94957C47.9119 5.94957 47.6186 6.04403 47.38 6.23295C47.1413 6.42187 46.9607 6.68371 46.8381 7.01847C46.7154 7.35322 46.6541 7.741 46.6541 8.18182C46.6541 8.62595 46.7154 9.0187 46.8381 9.36009C46.964 9.69815 47.1446 9.9633 47.38 10.1555C47.6186 10.3445 47.9119 10.4389 48.2599 10.4389ZM53.6752 12V4.36364H55.7931V12H53.6752ZM54.7392 3.37926C54.4243 3.37926 54.1542 3.27486 53.9288 3.06605C53.7067 2.85393 53.5957 2.60038 53.5957 2.3054C53.5957 2.01373 53.7067 1.76349 53.9288 1.55469C54.1542 1.34257 54.4243 1.23651 54.7392 1.23651C55.054 1.23651 55.3225 1.34257 55.5446 1.55469C55.7699 1.76349 55.8826 2.01373 55.8826 2.3054C55.8826 2.60038 55.7699 2.85393 55.5446 3.06605C55.3225 3.27486 55.054 3.37926 54.7392 3.37926ZM59.6076 7.58523V12H57.4897V4.36364H59.5082V5.71094H59.5977C59.7667 5.26681 60.0501 4.91548 60.4478 4.65696C60.8455 4.39512 61.3278 4.2642 61.8945 4.2642C62.4248 4.2642 62.8872 4.38021 63.2816 4.61222C63.676 4.84422 63.9826 5.17566 64.2013 5.60653C64.4201 6.03409 64.5295 6.54451 64.5295 7.13778V12H62.4116V7.51562C62.4149 7.0483 62.2956 6.68371 62.0536 6.42188C61.8117 6.15672 61.4786 6.02415 61.0543 6.02415C60.7693 6.02415 60.5174 6.08546 60.2987 6.2081C60.0832 6.33073 59.9142 6.50971 59.7915 6.74503C59.6722 6.97704 59.6109 7.2571 59.6076 7.58523ZM69.649 12.1491C68.8767 12.1491 68.2089 11.9851 67.6454 11.657C67.0853 11.3255 66.6528 10.8648 66.3478 10.2749C66.0429 9.68158 65.8904 8.99384 65.8904 8.21165C65.8904 7.42282 66.0429 6.73343 66.3478 6.14347C66.6528 5.55019 67.0853 5.08949 67.6454 4.76136C68.2089 4.42992 68.8767 4.2642 69.649 4.2642C70.4212 4.2642 71.0874 4.42992 71.6475 4.76136C72.211 5.08949 72.6452 5.55019 72.9501 6.14347C73.255 6.73343 73.4075 7.42282 73.4075 8.21165C73.4075 8.99384 73.255 9.68158 72.9501 10.2749C72.6452 10.8648 72.211 11.3255 71.6475 11.657C71.0874 11.9851 70.4212 12.1491 69.649 12.1491ZM69.6589 10.5085C70.0102 10.5085 70.3036 10.4091 70.5389 10.2102C70.7742 10.008 70.9515 9.73295 71.0708 9.38494C71.1935 9.03693 71.2548 8.64086 71.2548 8.19673C71.2548 7.7526 71.1935 7.35653 71.0708 7.00852C70.9515 6.66051 70.7742 6.38542 70.5389 6.18324C70.3036 5.98106 70.0102 5.87997 69.6589 5.87997C69.3043 5.87997 69.006 5.98106 68.764 6.18324C68.5254 6.38542 68.3448 6.66051 68.2221 7.00852C68.1028 7.35653 68.0431 7.7526 68.0431 8.19673C68.0431 8.64086 68.1028 9.03693 68.2221 9.38494C68.3448 9.73295 68.5254 10.008 68.764 10.2102C69.006 10.4091 69.3043 10.5085 69.6589 10.5085ZM81.6578 4.36364L78.9881 12H76.6017L73.932 4.36364H76.1692L77.7551 9.82741H77.8347L79.4157 4.36364H81.6578ZM87.4995 6.97869V8.65909H82.856V6.97869H87.4995ZM92.1181 12.1243C91.5381 12.1243 91.0127 11.9751 90.5421 11.6768C90.0748 11.3752 89.7035 10.9328 89.4284 10.3494C89.1567 9.76278 89.0208 9.04356 89.0208 8.19176C89.0208 7.31676 89.1616 6.58925 89.4434 6.00923C89.7251 5.4259 90.0996 4.99006 90.5669 4.7017C91.0376 4.41004 91.553 4.2642 92.1131 4.2642C92.5407 4.2642 92.897 4.33712 93.182 4.48295C93.4703 4.62547 93.7024 4.80445 93.878 5.01989C94.057 5.23201 94.1929 5.44081 94.2857 5.64631H94.3503V1.81818H96.4632V12H94.3752V10.777H94.2857C94.1863 10.9891 94.0454 11.1996 93.8631 11.4084C93.6841 11.6139 93.4505 11.7846 93.1621 11.9205C92.8771 12.0563 92.5291 12.1243 92.1181 12.1243ZM92.7892 10.4389C93.1306 10.4389 93.419 10.3461 93.6543 10.1605C93.8929 9.97159 94.0752 9.7081 94.2012 9.37003C94.3304 9.03196 94.3951 8.63589 94.3951 8.18182C94.3951 7.72775 94.3321 7.33333 94.2061 6.99858C94.0802 6.66383 93.8979 6.4053 93.6593 6.22301C93.4206 6.04072 93.1306 5.94957 92.7892 5.94957C92.4412 5.94957 92.1479 6.04403 91.9093 6.23295C91.6706 6.42187 91.49 6.68371 91.3674 7.01847C91.2447 7.35322 91.1834 7.741 91.1834 8.18182C91.1834 8.62595 91.2447 9.0187 91.3674 9.36009C91.4933 9.69815 91.6739 9.9633 91.9093 10.1555C92.1479 10.3445 92.4412 10.4389 92.7892 10.4389ZM101.685 12.1491C100.899 12.1491 100.223 11.9901 99.6562 11.6719C99.0928 11.3504 98.6586 10.8963 98.3537 10.3097C98.0488 9.7197 97.8963 9.02202 97.8963 8.21662C97.8963 7.43111 98.0488 6.74171 98.3537 6.14844C98.6586 5.55516 99.0878 5.0928 99.6413 4.76136C100.198 4.42992 100.851 4.2642 101.6 4.2642C102.104 4.2642 102.573 4.34541 103.007 4.50781C103.445 4.6669 103.826 4.9072 104.151 5.22869C104.479 5.55019 104.734 5.95455 104.916 6.44176C105.098 6.92566 105.19 7.49242 105.19 8.14205V8.72372H98.7415V7.41122H103.196C103.196 7.1063 103.13 6.83617 102.997 6.60085C102.865 6.36553 102.681 6.18158 102.445 6.04901C102.213 5.91312 101.943 5.84517 101.635 5.84517C101.313 5.84517 101.028 5.91974 100.78 6.06889C100.535 6.21473 100.342 6.41193 100.203 6.66051C100.064 6.90578 99.9927 7.17921 99.9893 7.48082V8.72869C99.9893 9.10653 100.059 9.433 100.198 9.7081C100.341 9.98319 100.541 10.1953 100.8 10.3445C101.058 10.4936 101.365 10.5682 101.719 10.5682C101.955 10.5682 102.17 10.535 102.366 10.4688C102.561 10.4025 102.729 10.303 102.868 10.1705C103.007 10.0379 103.113 9.87547 103.186 9.68324L105.145 9.8125C105.045 10.2831 104.842 10.6941 104.533 11.0455C104.228 11.3935 103.834 11.6652 103.35 11.8608C102.87 12.053 102.314 12.1491 101.685 12.1491ZM113.486 4.36364L110.816 12H108.43L105.76 4.36364H107.997L109.583 9.82741H109.663L111.244 4.36364H113.486Z" fill="black"/>
</g>
<defs>
<clipPath id="clip0_30_21">
<rect width="133" height="16" fill="white"/>
</clipPath>
</defs>
</svg>
