<svg width="133" height="16" viewBox="0 0 133 16" fill="none" xmlns="http://www.w3.org/2000/svg">
<g clip-path="url(#clip0_30_35)">
<path d="M125.978 1.64716C126.059 1.38324 125.911 1.10345 125.647 1.02224C125.383 0.941035 125.103 1.08916 125.022 1.35308L121.022 14.3528C120.941 14.6168 121.089 14.8965 121.353 14.9778C121.617 15.059 121.897 14.9108 121.978 14.6469L125.978 1.64716Z" fill="white"/>
<path d="M120.354 4.14651C120.549 4.34177 120.549 4.65834 120.354 4.8536L117.207 7.99999L120.354 11.1464C120.549 11.3416 120.549 11.6582 120.354 11.8535C120.158 12.0487 119.842 12.0487 119.646 11.8535L116.146 8.35354C115.951 8.15828 115.951 7.8417 116.146 7.64644L119.646 4.14651C119.842 3.95125 120.158 3.95125 120.354 4.14651Z" fill="white"/>
<path d="M126.646 4.14651C126.451 4.34177 126.451 4.65834 126.646 4.8536L129.793 7.99999L126.646 11.1464C126.451 11.3416 126.451 11.6582 126.646 11.8535C126.842 12.0487 127.158 12.0487 127.354 11.8535L130.854 8.35354C131.049 8.15828 131.049 7.8417 130.854 7.64644L127.354 4.14651C127.158 3.95125 126.842 3.95125 126.646 4.14651Z" fill="white"/>
<path d="M-0.15483 12V4.36364H1.86364V5.71094H1.95312C2.11222 5.26349 2.37737 4.91051 2.74858 4.65199C3.11979 4.39347 3.56392 4.2642 4.08097 4.2642C4.60464 4.2642 5.05043 4.39512 5.41832 4.65696C5.78622 4.91548 6.03149 5.26681 6.15412 5.71094H6.23367C6.38944 5.27344 6.67116 4.92377 7.07884 4.66193C7.48982 4.39678 7.97538 4.2642 8.53551 4.2642C9.24811 4.2642 9.82647 4.49124 10.2706 4.94531C10.718 5.39607 10.9418 6.03575 10.9418 6.86435V12H8.82884V7.28196C8.82884 6.85772 8.71615 6.53954 8.49077 6.32741C8.26539 6.11529 7.98367 6.00923 7.6456 6.00923C7.26113 6.00923 6.96117 6.13187 6.74574 6.37713C6.5303 6.61908 6.42259 6.93892 6.42259 7.33665V12H4.36932V7.23722C4.36932 6.86269 4.2616 6.56439 4.04616 6.34233C3.83404 6.12026 3.55398 6.00923 3.20597 6.00923C2.97064 6.00923 2.75852 6.06889 2.5696 6.18821C2.384 6.30421 2.23651 6.46828 2.12713 6.6804C2.01776 6.8892 1.96307 7.13447 1.96307 7.41619V12H-0.15483ZM17.5117 8.74858V4.36364H19.6296V12H17.5962V10.6129H17.5167C17.3443 11.0604 17.0576 11.42 16.6566 11.6918C16.2589 11.9635 15.7733 12.0994 15.1999 12.0994C14.6895 12.0994 14.2404 11.9834 13.8526 11.7514C13.4648 11.5194 13.1616 11.1896 12.9428 10.7621C12.7274 10.3345 12.618 9.82244 12.6147 9.22585V4.36364H14.7326V8.84801C14.7359 9.29877 14.8569 9.65507 15.0955 9.9169C15.3342 10.1787 15.654 10.3097 16.055 10.3097C16.3103 10.3097 16.5489 10.2517 16.771 10.1357C16.993 10.0163 17.172 9.84067 17.3079 9.60866C17.4471 9.37666 17.515 9.08996 17.5117 8.74858ZM23.4416 7.58523V12H21.3237V1.81818H23.3819V5.71094H23.4714C23.6438 5.26018 23.9222 4.9072 24.3066 4.65199C24.6911 4.39347 25.1734 4.2642 25.7534 4.2642C26.2837 4.2642 26.746 4.38021 27.1404 4.61222C27.5382 4.84091 27.8464 5.17069 28.0652 5.60156C28.2872 6.02912 28.3966 6.54119 28.3933 7.13778V12H26.2754V7.51562C26.2787 7.04498 26.1594 6.67874 25.9174 6.4169C25.6788 6.15507 25.344 6.02415 24.9132 6.02415C24.6248 6.02415 24.3696 6.08546 24.1475 6.2081C23.9288 6.33073 23.7565 6.50971 23.6305 6.74503C23.5079 6.97704 23.4449 7.2571 23.4416 7.58523ZM30.06 12V4.36364H32.1779V12H30.06ZM31.1239 3.37926C30.8091 3.37926 30.5389 3.27486 30.3136 3.06605C30.0915 2.85393 29.9805 2.60038 29.9805 2.3054C29.9805 2.01373 30.0915 1.76349 30.3136 1.55469C30.5389 1.34257 30.8091 1.23651 31.1239 1.23651C31.4388 1.23651 31.7073 1.34257 31.9293 1.55469C32.1547 1.76349 32.2674 2.01373 32.2674 2.3054C32.2674 2.60038 32.1547 2.85393 31.9293 3.06605C31.7073 3.27486 31.4388 3.37926 31.1239 3.37926ZM36.6884 12.1243C36.1084 12.1243 35.583 11.9751 35.1124 11.6768C34.6451 11.3752 34.2739 10.9328 33.9988 10.3494C33.727 9.76278 33.5911 9.04356 33.5911 8.19176C33.5911 7.31676 33.7319 6.58925 34.0137 6.00923C34.2954 5.4259 34.6699 4.99006 35.1373 4.7017C35.6079 4.41004 36.1233 4.2642 36.6834 4.2642C37.111 4.2642 37.4673 4.33712 37.7523 4.48295C38.0407 4.62547 38.2727 4.80445 38.4483 5.01989C38.6273 5.23201 38.7632 5.44081 38.856 5.64631H38.9206V1.81818H41.0336V12H38.9455V10.777H38.856C38.7566 10.9891 38.6157 11.1996 38.4334 11.4084C38.2544 11.6139 38.0208 11.7846 37.7324 11.9205C37.4474 12.0563 37.0994 12.1243 36.6884 12.1243ZM37.3596 10.4389C37.7009 10.4389 37.9893 10.3461 38.2246 10.1605C38.4632 9.97159 38.6455 9.7081 38.7715 9.37003C38.9007 9.03196 38.9654 8.63589 38.9654 8.18182C38.9654 7.72775 38.9024 7.33333 38.7765 6.99858C38.6505 6.66383 38.4682 6.4053 38.2296 6.22301C37.9909 6.04072 37.7009 5.94957 37.3596 5.94957C37.0115 5.94957 36.7182 6.04403 36.4796 6.23295C36.2409 6.42187 36.0603 6.68371 35.9377 7.01847C35.815 7.35322 35.7537 7.741 35.7537 8.18182C35.7537 8.62595 35.815 9.0187 35.9377 9.36009C36.0636 9.69815 36.2443 9.9633 36.4796 10.1555C36.7182 10.3445 37.0115 10.4389 37.3596 10.4389ZM45.5888 12.1243C45.0088 12.1243 44.4834 11.9751 44.0128 11.6768C43.5455 11.3752 43.1742 10.9328 42.8991 10.3494C42.6274 9.76278 42.4915 9.04356 42.4915 8.19176C42.4915 7.31676 42.6323 6.58925 42.9141 6.00923C43.1958 5.4259 43.5703 4.99006 44.0376 4.7017C44.5083 4.41004 45.0237 4.2642 45.5838 4.2642C46.0114 4.2642 46.3677 4.33712 46.6527 4.48295C46.9411 4.62547 47.1731 4.80445 47.3487 5.01989C47.5277 5.23201 47.6636 5.44081 47.7564 5.64631H47.821V1.81818H49.9339V12H47.8459V10.777H47.7564C47.657 10.9891 47.5161 11.1996 47.3338 11.4084C47.1548 11.6139 46.9212 11.7846 46.6328 11.9205C46.3478 12.0563 45.9998 12.1243 45.5888 12.1243ZM46.2599 10.4389C46.6013 10.4389 46.8897 10.3461 47.125 10.1605C47.3636 9.97159 47.5459 9.7081 47.6719 9.37003C47.8011 9.03196 47.8658 8.63589 47.8658 8.18182C47.8658 7.72775 47.8028 7.33333 47.6768 6.99858C47.5509 6.66383 47.3686 6.4053 47.13 6.22301C46.8913 6.04072 46.6013 5.94957 46.2599 5.94957C45.9119 5.94957 45.6186 6.04403 45.38 6.23295C45.1413 6.42187 44.9607 6.68371 44.8381 7.01847C44.7154 7.35322 44.6541 7.741 44.6541 8.18182C44.6541 8.62595 44.7154 9.0187 44.8381 9.36009C44.964 9.69815 45.1446 9.9633 45.38 10.1555C45.6186 10.3445 45.9119 10.4389 46.2599 10.4389ZM51.6752 12V4.36364H53.7931V12H51.6752ZM52.7392 3.37926C52.4243 3.37926 52.1542 3.27486 51.9288 3.06605C51.7067 2.85393 51.5957 2.60038 51.5957 2.3054C51.5957 2.01373 51.7067 1.76349 51.9288 1.55469C52.1542 1.34257 52.4243 1.23651 52.7392 1.23651C53.054 1.23651 53.3225 1.34257 53.5446 1.55469C53.7699 1.76349 53.8826 2.01373 53.8826 2.3054C53.8826 2.60038 53.7699 2.85393 53.5446 3.06605C53.3225 3.27486 53.054 3.37926 52.7392 3.37926ZM57.6076 7.58523V12H55.4897V4.36364H57.5082V5.71094H57.5977C57.7667 5.26681 58.0501 4.91548 58.4478 4.65696C58.8455 4.39512 59.3278 4.2642 59.8945 4.2642C60.4248 4.2642 60.8872 4.38021 61.2816 4.61222C61.676 4.84422 61.9826 5.17566 62.2013 5.60653C62.4201 6.03409 62.5295 6.54451 62.5295 7.13778V12H60.4116V7.51562C60.4149 7.0483 60.2956 6.68371 60.0536 6.42188C59.8117 6.15672 59.4786 6.02415 59.0543 6.02415C58.7693 6.02415 58.5174 6.08546 58.2987 6.2081C58.0832 6.33073 57.9142 6.50971 57.7915 6.74503C57.6722 6.97704 57.6109 7.2571 57.6076 7.58523ZM67.649 12.1491C66.8767 12.1491 66.2089 11.9851 65.6454 11.657C65.0853 11.3255 64.6528 10.8648 64.3478 10.2749C64.0429 9.68158 63.8904 8.99384 63.8904 8.21165C63.8904 7.42282 64.0429 6.73343 64.3478 6.14347C64.6528 5.55019 65.0853 5.08949 65.6454 4.76136C66.2089 4.42992 66.8767 4.2642 67.649 4.2642C68.4212 4.2642 69.0874 4.42992 69.6475 4.76136C70.211 5.08949 70.6452 5.55019 70.9501 6.14347C71.255 6.73343 71.4075 7.42282 71.4075 8.21165C71.4075 8.99384 71.255 9.68158 70.9501 10.2749C70.6452 10.8648 70.211 11.3255 69.6475 11.657C69.0874 11.9851 68.4212 12.1491 67.649 12.1491ZM67.6589 10.5085C68.0102 10.5085 68.3036 10.4091 68.5389 10.2102C68.7742 10.008 68.9515 9.73295 69.0708 9.38494C69.1935 9.03693 69.2548 8.64086 69.2548 8.19673C69.2548 7.7526 69.1935 7.35653 69.0708 7.00852C68.9515 6.66051 68.7742 6.38542 68.5389 6.18324C68.3036 5.98106 68.0102 5.87997 67.6589 5.87997C67.3043 5.87997 67.006 5.98106 66.764 6.18324C66.5254 6.38542 66.3448 6.66051 66.2221 7.00852C66.1028 7.35653 66.0431 7.7526 66.0431 8.19673C66.0431 8.64086 66.1028 9.03693 66.2221 9.38494C66.3448 9.73295 66.5254 10.008 66.764 10.2102C67.006 10.4091 67.3043 10.5085 67.6589 10.5085ZM79.6578 4.36364L76.9881 12H74.6017L71.932 4.36364H74.1692L75.7551 9.82741H75.8347L77.4157 4.36364H79.6578ZM85.4995 6.97869V8.65909H80.856V6.97869H85.4995ZM90.1181 12.1243C89.5381 12.1243 89.0127 11.9751 88.5421 11.6768C88.0748 11.3752 87.7035 10.9328 87.4284 10.3494C87.1567 9.76278 87.0208 9.04356 87.0208 8.19176C87.0208 7.31676 87.1616 6.58925 87.4434 6.00923C87.7251 5.4259 88.0996 4.99006 88.5669 4.7017C89.0376 4.41004 89.553 4.2642 90.1131 4.2642C90.5407 4.2642 90.897 4.33712 91.182 4.48295C91.4703 4.62547 91.7024 4.80445 91.878 5.01989C92.057 5.23201 92.1929 5.44081 92.2857 5.64631H92.3503V1.81818H94.4632V12H92.3752V10.777H92.2857C92.1863 10.9891 92.0454 11.1996 91.8631 11.4084C91.6841 11.6139 91.4505 11.7846 91.1621 11.9205C90.8771 12.0563 90.5291 12.1243 90.1181 12.1243ZM90.7892 10.4389C91.1306 10.4389 91.419 10.3461 91.6543 10.1605C91.8929 9.97159 92.0752 9.7081 92.2012 9.37003C92.3304 9.03196 92.3951 8.63589 92.3951 8.18182C92.3951 7.72775 92.3321 7.33333 92.2061 6.99858C92.0802 6.66383 91.8979 6.4053 91.6593 6.22301C91.4206 6.04072 91.1306 5.94957 90.7892 5.94957C90.4412 5.94957 90.1479 6.04403 89.9093 6.23295C89.6706 6.42187 89.49 6.68371 89.3674 7.01847C89.2447 7.35322 89.1834 7.741 89.1834 8.18182C89.1834 8.62595 89.2447 9.0187 89.3674 9.36009C89.4933 9.69815 89.6739 9.9633 89.9093 10.1555C90.1479 10.3445 90.4412 10.4389 90.7892 10.4389ZM99.6847 12.1491C98.8991 12.1491 98.223 11.9901 97.6562 11.6719C97.0928 11.3504 96.6586 10.8963 96.3537 10.3097C96.0488 9.7197 95.8963 9.02202 95.8963 8.21662C95.8963 7.43111 96.0488 6.74171 96.3537 6.14844C96.6586 5.55516 97.0878 5.0928 97.6413 4.76136C98.1982 4.42992 98.8511 4.2642 99.6001 4.2642C100.104 4.2642 100.573 4.34541 101.007 4.50781C101.445 4.6669 101.826 4.9072 102.151 5.22869C102.479 5.55019 102.734 5.95455 102.916 6.44176C103.098 6.92566 103.19 7.49242 103.19 8.14205V8.72372H96.7415V7.41122H101.196C101.196 7.1063 101.13 6.83617 100.997 6.60085C100.865 6.36553 100.681 6.18158 100.445 6.04901C100.213 5.91312 99.9432 5.84517 99.6349 5.84517C99.3134 5.84517 99.0284 5.91974 98.7798 6.06889C98.5346 6.21473 98.3423 6.41193 98.2031 6.66051C98.0639 6.90578 97.9927 7.17921 97.9893 7.48082V8.72869C97.9893 9.10653 98.0589 9.433 98.1982 9.7081C98.3407 9.98319 98.5412 10.1953 98.7997 10.3445C99.0582 10.4936 99.3648 10.5682 99.7195 10.5682C99.9548 10.5682 100.17 10.535 100.366 10.4688C100.561 10.4025 100.729 10.303 100.868 10.1705C101.007 10.0379 101.113 9.87547 101.186 9.68324L103.145 9.8125C103.045 10.2831 102.842 10.6941 102.533 11.0455C102.228 11.3935 101.834 11.6652 101.35 11.8608C100.87 12.053 100.314 12.1491 99.6847 12.1491ZM111.486 4.36364L108.816 12H106.43L103.76 4.36364H105.997L107.583 9.82741H107.663L109.244 4.36364H111.486Z" fill="white"/>
</g>
<defs>
<clipPath id="clip0_30_35">
<rect width="133" height="16" fill="white"/>
</clipPath>
</defs>
</svg>
