<svg width="160" height="19" viewBox="0 0 160 19" fill="none" xmlns="http://www.w3.org/2000/svg">
<path d="M153.304 0.878293C153.412 0.520108 153.215 0.140398 152.863 0.0301869C152.511 -0.080024 152.138 0.120999 152.029 0.479184L146.696 18.1217C146.588 18.4799 146.785 18.8596 147.137 18.9698C147.489 19.08 147.862 18.879 147.971 18.5208L153.304 0.878293Z" fill="white"/>
<path d="M145.805 4.27026C146.065 4.53526 146.065 4.9649 145.805 5.22989L141.609 9.49999L145.805 13.7701C146.065 14.0351 146.065 14.4647 145.805 14.7297C145.544 14.9947 145.122 14.9947 144.862 14.7297L140.195 9.9798C139.935 9.71481 139.935 9.28517 140.195 9.02017L144.862 4.27026C145.122 4.00527 145.544 4.00527 145.805 4.27026Z" fill="white"/>
<path d="M154.195 4.27026C153.935 4.53526 153.935 4.9649 154.195 5.22989L158.391 9.49999L154.195 13.7701C153.935 14.0351 153.935 14.4647 154.195 14.7297C154.456 14.9947 154.878 14.9947 155.138 14.7297L159.805 9.9798C160.065 9.71481 160.065 9.28517 159.805 9.02017L155.138 4.27026C154.878 4.00527 154.456 4.00527 154.195 4.27026Z" fill="white"/>
<path d="M0.0262784 15V5.72727H2.47727V7.36328H2.58594C2.77912 6.81996 3.10109 6.39133 3.55185 6.07741C4.0026 5.76349 4.5419 5.60653 5.16974 5.60653C5.80563 5.60653 6.34695 5.76551 6.79368 6.08345C7.24041 6.39737 7.53823 6.82398 7.68715 7.36328H7.78374C7.97289 6.83203 8.31499 6.40743 8.81001 6.08949C9.30907 5.76752 9.89867 5.60653 10.5788 5.60653C11.4441 5.60653 12.1464 5.88222 12.6857 6.43359C13.229 6.98094 13.5007 7.75769 13.5007 8.76385V15H10.935V9.27095C10.935 8.7558 10.7982 8.36944 10.5245 8.11186C10.2508 7.85428 9.90874 7.7255 9.49822 7.7255C9.03137 7.7255 8.66714 7.87441 8.40554 8.17223C8.14394 8.46603 8.01314 8.8544 8.01314 9.33736V15H5.51989V9.21662C5.51989 8.76184 5.38909 8.39962 5.12749 8.12997C4.86991 7.86032 4.52983 7.7255 4.10724 7.7255C3.8215 7.7255 3.56392 7.79794 3.33452 7.94283C3.10914 8.08369 2.93004 8.28291 2.79723 8.54048C2.66442 8.79403 2.59801 9.09186 2.59801 9.43395V15H0.0262784ZM21.4785 11.0518V5.72727H24.0502V15H21.5811V13.3157H21.4846C21.2753 13.859 20.9271 14.2957 20.4402 14.6257C19.9572 14.9557 19.3676 15.1207 18.6713 15.1207C18.0516 15.1207 17.5062 14.9799 17.0353 14.6982C16.5645 14.4164 16.1962 14.016 15.9306 13.4968C15.669 12.9776 15.5362 12.3558 15.5321 11.6314V5.72727H18.1039V11.1726C18.1079 11.7199 18.2548 12.1526 18.5446 12.4705C18.8343 12.7885 19.2227 12.9474 19.7097 12.9474C20.0196 12.9474 20.3094 12.877 20.579 12.7362C20.8487 12.5913 21.066 12.378 21.231 12.0962C21.4 11.8145 21.4825 11.4664 21.4785 11.0518ZM28.6791 9.6392V15H26.1073V2.63636H28.6066V7.36328H28.7153C28.9246 6.81593 29.2626 6.38731 29.7295 6.07741C30.1963 5.76349 30.7819 5.60653 31.4862 5.60653C32.1302 5.60653 32.6916 5.7474 33.1705 6.02912C33.6535 6.30682 34.0278 6.70727 34.2934 7.23047C34.5631 7.74964 34.6959 8.37145 34.6919 9.09588V15H32.1201V9.55469C32.1241 8.98319 31.9793 8.53847 31.6855 8.22053C31.3957 7.90258 30.9892 7.74361 30.466 7.74361C30.1159 7.74361 29.806 7.81806 29.5363 7.96697C29.2707 8.11589 29.0614 8.33321 28.9085 8.61896C28.7596 8.90069 28.6831 9.24077 28.6791 9.6392ZM36.7157 15V5.72727H39.2875V15H36.7157ZM38.0076 4.53196C37.6253 4.53196 37.2973 4.40518 37.0236 4.15163C36.754 3.89406 36.6191 3.58617 36.6191 3.22798C36.6191 2.87382 36.754 2.56996 37.0236 2.31641C37.2973 2.05883 37.6253 1.93004 38.0076 1.93004C38.39 1.93004 38.716 2.05883 38.9856 2.31641C39.2593 2.56996 39.3961 2.87382 39.3961 3.22798C39.3961 3.58617 39.2593 3.89406 38.9856 4.15163C38.716 4.40518 38.39 4.53196 38.0076 4.53196ZM44.7645 15.1509C44.0602 15.1509 43.4223 14.9698 42.8508 14.6076C42.2833 14.2414 41.8325 13.7041 41.4985 12.9957C41.1685 12.2834 41.0035 11.41 41.0035 10.3757C41.0035 9.31321 41.1745 8.42981 41.5166 7.7255C41.8587 7.01716 42.3135 6.48793 42.8809 6.13778C43.4524 5.78362 44.0783 5.60653 44.7584 5.60653C45.2776 5.60653 45.7103 5.69508 46.0564 5.87216C46.4065 6.04522 46.6882 6.26255 46.9015 6.52415C47.1189 6.78172 47.2839 7.03527 47.3966 7.2848H47.4751V2.63636H50.0408V15H47.5052V13.5149H47.3966C47.2758 13.7725 47.1048 14.0281 46.8834 14.2816C46.6661 14.5311 46.3824 14.7384 46.0322 14.9034C45.6861 15.0684 45.2635 15.1509 44.7645 15.1509ZM45.5795 13.1044C45.994 13.1044 46.3441 12.9917 46.6299 12.7663C46.9197 12.5369 47.141 12.217 47.2939 11.8065C47.4509 11.396 47.5294 10.915 47.5294 10.3636C47.5294 9.81226 47.4529 9.33333 47.3 8.92685C47.147 8.52036 46.9257 8.20644 46.6359 7.98508C46.3461 7.76373 45.994 7.65305 45.5795 7.65305C45.1569 7.65305 44.8007 7.76776 44.5109 7.99716C44.2211 8.22656 44.0018 8.54451 43.8529 8.95099C43.704 9.35748 43.6295 9.82836 43.6295 10.3636C43.6295 10.9029 43.704 11.3799 43.8529 11.7944C44.0058 12.2049 44.2252 12.5269 44.5109 12.7603C44.8007 12.9897 45.1569 13.1044 45.5795 13.1044ZM55.5721 15.1509C54.8678 15.1509 54.2299 14.9698 53.6584 14.6076C53.0909 14.2414 52.6402 13.7041 52.3061 12.9957C51.9761 12.2834 51.8111 11.41 51.8111 10.3757C51.8111 9.31321 51.9821 8.42981 52.3242 7.7255C52.6663 7.01716 53.1211 6.48793 53.6886 6.13778C54.2601 5.78362 54.8859 5.60653 55.5661 5.60653C56.0852 5.60653 56.5179 5.69508 56.864 5.87216C57.2141 6.04522 57.4959 6.26255 57.7092 6.52415C57.9265 6.78172 58.0915 7.03527 58.2042 7.2848H58.2827V2.63636H60.8484V15H58.3129V13.5149H58.2042C58.0835 13.7725 57.9124 14.0281 57.6911 14.2816C57.4737 14.5311 57.19 14.7384 56.8398 14.9034C56.4937 15.0684 56.0711 15.1509 55.5721 15.1509ZM56.3871 13.1044C56.8016 13.1044 57.1518 12.9917 57.4375 12.7663C57.7273 12.5369 57.9486 12.217 58.1016 11.8065C58.2585 11.396 58.337 10.915 58.337 10.3636C58.337 9.81226 58.2605 9.33333 58.1076 8.92685C57.9547 8.52036 57.7333 8.20644 57.4435 7.98508C57.1538 7.76373 56.8016 7.65305 56.3871 7.65305C55.9645 7.65305 55.6083 7.76776 55.3185 7.99716C55.0288 8.22656 54.8094 8.54451 54.6605 8.95099C54.5116 9.35748 54.4371 9.82836 54.4371 10.3636C54.4371 10.9029 54.5116 11.3799 54.6605 11.7944C54.8134 12.2049 55.0328 12.5269 55.3185 12.7603C55.6083 12.9897 55.9645 13.1044 56.3871 13.1044ZM62.9628 15V5.72727H65.5345V15H62.9628ZM64.2547 4.53196C63.8724 4.53196 63.5444 4.40518 63.2707 4.15163C63.001 3.89406 62.8662 3.58617 62.8662 3.22798C62.8662 2.87382 63.001 2.56996 63.2707 2.31641C63.5444 2.05883 63.8724 1.93004 64.2547 1.93004C64.637 1.93004 64.963 2.05883 65.2327 2.31641C65.5064 2.56996 65.6432 2.87382 65.6432 3.22798C65.6432 3.58617 65.5064 3.89406 65.2327 4.15163C64.963 4.40518 64.637 4.53196 64.2547 4.53196ZM70.1664 9.6392V15H67.5946V5.72727H70.0456V7.36328H70.1543C70.3596 6.82398 70.7037 6.39737 71.1866 6.08345C71.6696 5.76551 72.2551 5.60653 72.9434 5.60653C73.5873 5.60653 74.1487 5.7474 74.6277 6.02912C75.1066 6.31084 75.4789 6.7133 75.7445 7.23651C76.0101 7.75568 76.1429 8.37547 76.1429 9.09588V15H73.5712V9.55469C73.5752 8.98722 73.4303 8.54451 73.1365 8.22656C72.8427 7.90459 72.4383 7.74361 71.9231 7.74361C71.577 7.74361 71.2711 7.81806 71.0055 7.96697C70.7439 8.11589 70.5386 8.33321 70.3897 8.61896C70.2449 8.90069 70.1704 9.24077 70.1664 9.6392ZM82.3595 15.1811C81.4217 15.1811 80.6108 14.9819 79.9266 14.5835C79.2464 14.181 78.7212 13.6216 78.3509 12.9052C77.9807 12.1848 77.7955 11.3497 77.7955 10.3999C77.7955 9.442 77.9807 8.60488 78.3509 7.88849C78.7212 7.16809 79.2464 6.60866 79.9266 6.21023C80.6108 5.80776 81.4217 5.60653 82.3595 5.60653C83.2972 5.60653 84.1061 5.80776 84.7863 6.21023C85.4705 6.60866 85.9977 7.16809 86.368 7.88849C86.7383 8.60488 86.9234 9.442 86.9234 10.3999C86.9234 11.3497 86.7383 12.1848 86.368 12.9052C85.9977 13.6216 85.4705 14.181 84.7863 14.5835C84.1061 14.9819 83.2972 15.1811 82.3595 15.1811ZM82.3715 13.1889C82.7981 13.1889 83.1543 13.0682 83.4401 12.8267C83.7258 12.5812 83.9411 12.2472 84.086 11.8246C84.2349 11.402 84.3094 10.921 84.3094 10.3817C84.3094 9.84245 84.2349 9.36151 84.086 8.93892C83.9411 8.51634 83.7258 8.18229 83.4401 7.93679C83.1543 7.69129 82.7981 7.56854 82.3715 7.56854C81.9409 7.56854 81.5787 7.69129 81.2849 7.93679C80.9951 8.18229 80.7758 8.51634 80.6269 8.93892C80.482 9.36151 80.4095 9.84245 80.4095 10.3817C80.4095 10.921 80.482 11.402 80.6269 11.8246C80.7758 12.2472 80.9951 12.5812 81.2849 12.8267C81.5787 13.0682 81.9409 13.1889 82.3715 13.1889ZM96.9417 5.72727L93.6998 15H90.8021L87.5603 5.72727H90.2769L92.2027 12.3619H92.2993L94.219 5.72727H96.9417ZM104.035 8.9027V10.9432H98.3966V8.9027H104.035ZM109.643 15.1509C108.939 15.1509 108.301 14.9698 107.73 14.6076C107.162 14.2414 106.711 13.7041 106.377 12.9957C106.047 12.2834 105.882 11.41 105.882 10.3757C105.882 9.31321 106.053 8.42981 106.396 7.7255C106.738 7.01716 107.192 6.48793 107.76 6.13778C108.331 5.78362 108.957 5.60653 109.637 5.60653C110.157 5.60653 110.589 5.69508 110.935 5.87216C111.285 6.04522 111.567 6.26255 111.78 6.52415C111.998 6.78172 112.163 7.03527 112.275 7.2848H112.354V2.63636H114.92V15H112.384V13.5149H112.275C112.155 13.7725 111.984 14.0281 111.762 14.2816C111.545 14.5311 111.261 14.7384 110.911 14.9034C110.565 15.0684 110.142 15.1509 109.643 15.1509ZM110.458 13.1044C110.873 13.1044 111.223 12.9917 111.509 12.7663C111.799 12.5369 112.02 12.217 112.173 11.8065C112.33 11.396 112.408 10.915 112.408 10.3636C112.408 9.81226 112.332 9.33333 112.179 8.92685C112.026 8.52036 111.805 8.20644 111.515 7.98508C111.225 7.76373 110.873 7.65305 110.458 7.65305C110.036 7.65305 109.68 7.76776 109.39 7.99716C109.1 8.22656 108.881 8.54451 108.732 8.95099C108.583 9.35748 108.508 9.82836 108.508 10.3636C108.508 10.9029 108.583 11.3799 108.732 11.7944C108.885 12.2049 109.104 12.5269 109.39 12.7603C109.68 12.9897 110.036 13.1044 110.458 13.1044ZM121.26 15.1811C120.306 15.1811 119.485 14.9879 118.797 14.6016C118.113 14.2112 117.585 13.6598 117.215 12.9474C116.845 12.2311 116.66 11.3839 116.66 10.4059C116.66 9.45206 116.845 8.61494 117.215 7.89453C117.585 7.17412 118.107 6.61269 118.779 6.21023C119.455 5.80776 120.248 5.60653 121.157 5.60653C121.769 5.60653 122.339 5.70514 122.866 5.90234C123.397 6.09553 123.86 6.38731 124.254 6.7777C124.653 7.16809 124.963 7.65909 125.184 8.25071C125.405 8.8383 125.516 9.52651 125.516 10.3153V11.0217H117.686V9.42791H123.095C123.095 9.05765 123.015 8.72964 122.854 8.44389C122.693 8.15814 122.469 7.93478 122.184 7.77379C121.902 7.60878 121.574 7.52628 121.2 7.52628C120.809 7.52628 120.463 7.61683 120.161 7.79794C119.863 7.97502 119.63 8.21449 119.461 8.51633C119.292 8.81416 119.205 9.14619 119.201 9.51243V11.0277C119.201 11.4865 119.286 11.8829 119.455 12.217C119.628 12.551 119.871 12.8086 120.185 12.9897C120.499 13.1708 120.872 13.2614 121.302 13.2614C121.588 13.2614 121.85 13.2211 122.087 13.1406C122.324 13.0601 122.528 12.9394 122.697 12.7784C122.866 12.6174 122.995 12.4202 123.083 12.1868L125.462 12.3438C125.341 12.9152 125.093 13.4143 124.719 13.8409C124.349 14.2635 123.87 14.5935 123.282 14.831C122.699 15.0644 122.025 15.1811 121.26 15.1811ZM135.59 5.72727L132.348 15H129.451L126.209 5.72727H128.925L130.851 12.3619H130.948L132.867 5.72727H135.59Z" fill="white"/>
</svg>
