<svg width="58" height="57" viewBox="0 0 58 57" fill="none" xmlns="http://www.w3.org/2000/svg">
<path d="M5 14.8052H45C47.7614 14.8052 50 16.9864 50 19.677V39.1642C50 46.6979 43.732 52.8052 36 52.8052H14C6.268 52.8052 0 46.6979 0 39.1642V19.677C0 16.9864 2.2386 14.8052 5 14.8052Z" fill="#8B4513"/>
<path d="M5 14.8052H45C47.7614 14.8052 50 16.9779 50 19.6581V34.2169C50 41.7215 43.732 47.8052 36 47.8052H14C6.268 47.8052 0 41.7215 0 34.2169V19.6581C0 16.9779 2.2386 14.8052 5 14.8052Z" fill="#D2691E"/>
<path d="M45 25.8052H52C55.3137 25.8052 58 28.4915 58 31.8052V37.8052C58 41.1189 55.3137 43.8052 52 43.8052H45V25.8052Z" fill="#CD853F"/>
<path d="M45 19.8052H5V43.8052H45V19.8052Z" fill="#6F4E37"/>
<path d="M25 38.8052C33.2843 38.8052 40 35.4473 40 31.3052C40 27.163 33.2843 23.8052 25 23.8052C16.7157 23.8052 10 27.163 10 31.3052C10 35.4473 16.7157 38.8052 25 38.8052Z" fill="#4A2C2A"/>
<path d="M15 3.80506C15 1.59349 17 0.119101 20 1.59348C23 0.119101 25 1.59349 25 3.80506" stroke="#DDDDDD" stroke-width="2"/>
<path d="M20 3.80506C20 1.59349 22 0.119101 25 1.59348C28 0.119101 30 1.59349 30 3.80506" stroke="#DDDDDD" stroke-width="2"/>
<path d="M25 3.80506C25 1.59349 27 0.119101 30 1.59348C33 0.119101 35 1.59349 35 3.80506" stroke="#DDDDDD" stroke-width="2"/>
<path d="M46 53.8052H4C2.89543 53.8052 2 54.4767 2 55.3052C2 56.1336 2.89543 56.8052 4 56.8052H46C47.1046 56.8052 48 56.1336 48 55.3052C48 54.4767 47.1046 53.8052 46 53.8052Z" fill="#8B4513"/>
</svg>
