<svg width="55" height="48" viewBox="0 0 55 48" fill="none" xmlns="http://www.w3.org/2000/svg">
<path d="M27.5 29C31.0899 29 34 26.5376 34 23.5C34 20.4624 31.0899 18 27.5 18C23.9101 18 21 20.4624 21 23.5C21 26.5376 23.9101 29 27.5 29Z" fill="#61DAFB"/>
<path d="M27.5 33C41.5833 33 53 28.7467 53 23.5C53 18.2533 41.5833 14 27.5 14C13.4167 14 2 18.2533 2 23.5C2 28.7467 13.4167 33 27.5 33Z" stroke="#61DAFB" stroke-width="3"/>
<path d="M19.5368 28.5077C26.5785 40.465 36.0469 48.03 40.6852 45.4046C45.3234 42.7792 43.3751 30.9576 36.3335 19.0002C29.2919 7.04293 19.8234 -0.522085 15.1852 2.10331C10.5469 4.72871 12.4952 16.5503 19.5368 28.5077Z" stroke="#61DAFB" stroke-width="3"/>
<path d="M35.4632 28.5072C42.5048 16.5498 44.4531 4.72822 39.8148 2.10283C35.1766 -0.522572 25.7081 7.04244 18.6665 18.9998C11.6249 30.9571 9.67656 42.7787 14.3148 45.4041C18.9531 48.0295 28.4215 40.4645 35.4632 28.5072Z" stroke="#61DAFB" stroke-width="3"/>
<path d="M27.5 26C29.433 26 31 24.8807 31 23.5C31 22.1193 29.433 21 27.5 21C25.567 21 24 22.1193 24 23.5C24 24.8807 25.567 26 27.5 26Z" fill="white"/>
<path d="M12 20C13.1046 20 14 19.3284 14 18.5C14 17.6716 13.1046 17 12 17C10.8954 17 10 17.6716 10 18.5C10 19.3284 10.8954 20 12 20Z" fill="#61DAFB"/>
<path d="M43 20C44.1046 20 45 19.3284 45 18.5C45 17.6716 44.1046 17 43 17C41.8954 17 41 17.6716 41 18.5C41 19.3284 41.8954 20 43 20Z" fill="#61DAFB"/>
<path d="M12 30C13.1046 30 14 29.3284 14 28.5C14 27.6716 13.1046 27 12 27C10.8954 27 10 27.6716 10 28.5C10 29.3284 10.8954 30 12 30Z" fill="#61DAFB"/>
<path d="M43 30C44.1046 30 45 29.3284 45 28.5C45 27.6716 44.1046 27 43 27C41.8954 27 41 27.6716 41 28.5C41 29.3284 41.8954 30 43 30Z" fill="#61DAFB"/>
<path d="M19 10C20.1046 10 21 9.32843 21 8.5C21 7.67157 20.1046 7 19 7C17.8954 7 17 7.67157 17 8.5C17 9.32843 17.8954 10 19 10Z" fill="#61DAFB"/>
<path d="M36 10C37.1046 10 38 9.32843 38 8.5C38 7.67157 37.1046 7 36 7C34.8954 7 34 7.67157 34 8.5C34 9.32843 34.8954 10 36 10Z" fill="#61DAFB"/>
<path d="M19 40C20.1046 40 21 39.3284 21 38.5C21 37.6716 20.1046 37 19 37C17.8954 37 17 37.6716 17 38.5C17 39.3284 17.8954 40 19 40Z" fill="#61DAFB"/>
<path d="M36 40C37.1046 40 38 39.3284 38 38.5C38 37.6716 37.1046 37 36 37C34.8954 37 34 37.6716 34 38.5C34 39.3284 34.8954 40 36 40Z" fill="#61DAFB"/>
</svg>
