<svg width="41" height="40" viewBox="0 0 41 40" fill="none" xmlns="http://www.w3.org/2000/svg">
<path d="M11.1725 8.33333C11.275 9.81667 11.5312 11.2667 11.9412 12.65L9.89125 14.65C9.19083 12.65 8.74667 10.5333 8.59292 8.33333H11.1725ZM28.0167 28.3667C29.4688 28.7667 30.955 29.0167 32.4583 29.1167V31.6C30.2033 31.45 28.0338 31.0167 25.9667 30.35L28.0167 28.3667ZM12.8125 5H6.83333C5.89375 5 5.125 5.75 5.125 6.66667C5.125 22.3167 18.1254 35 34.1667 35C35.1063 35 35.875 34.25 35.875 33.3333V27.5167C35.875 26.6 35.1063 25.85 34.1667 25.85C32.0483 25.85 29.9813 25.5167 28.0679 24.9C27.8971 24.8333 27.7092 24.8167 27.5383 24.8167C27.0942 24.8167 26.6671 24.9833 26.3254 25.3L22.5671 28.9667C17.7325 26.55 13.7692 22.7 11.3092 17.9833L15.0675 14.3167C15.5458 13.85 15.6825 13.2 15.4946 12.6167C14.8625 10.75 14.5208 8.75 14.5208 6.66667C14.5208 5.75 13.7521 5 12.8125 5Z" fill="black"/>
</svg>
