<svg width="41" height="40" viewBox="0 0 41 40" fill="none" xmlns="http://www.w3.org/2000/svg">
<path d="M30.3625 7.90455C32.0224 7.36476 32.8525 7.09418 33.2863 7.53444C33.7201 7.97468 33.4375 8.80082 32.8732 10.4524L25.8098 31.1282C25.0248 33.4256 24.6313 34.5745 23.9162 34.5745C23.2014 34.574 22.8084 33.4251 22.0236 31.1282L19.1496 22.7141L26.3224 15.7161C26.7178 15.3304 26.7257 14.6973 26.34 14.302C25.9543 13.9071 25.3211 13.8989 24.926 14.2844L17.717 21.3167L9.26483 18.5686C6.85538 17.7851 5.65084 17.3934 5.65057 16.6672C5.65057 15.9409 6.85502 15.5486 9.26483 14.7649L30.3625 7.90455Z" fill="black"/>
</svg>
